PathFileType	4	(X/Y/Z)	D:\Share\Shared_Data\Ergonomics\Sit To Stand Pertubation\S3\Unperturbed.trc
DataRate	CameraRate	NumFrames	NumMarkers	Units	OrigDataRate	OrigDataStartFrame	OrigNumFrames	
100	100	18	18	m	100	1608	191
Frame#	Time	R_Thigh			R_ASIS			R_Pelvis			V_Sacral			L_Pelvis			L_ASIS			Clavical			R_Acromium			L_Acromium			Sternum			Torso			R_Thigh_Med			R_Thigh_Lat			R_Shank_Med			R_Shank_Lat			R_Shank			R_Heel			R_Toe			
		X1	Y1	Z1	X2	Y2	Z2	X3	Y3	Z3	X4	Y4	Z4	X5	Y5	Z5	X6	Y6	Z6	X7	Y7	Z7	X8	Y8	Z8	X9	Y9	Z9	X10	Y10	Z10	X11	Y11	Z11	X12	Y12	Z12	X13	Y13	Z13	X14	Y14	Z14	X15	Y15	Z15	X16	Y16	Z16	X17	Y17	Z17	X18	Y18	Z18	

1608	16.07	0.4059613	0.65733789	0.10863	0.40355957	0.94399194	0.14050713	0.29035986	0.95166431	0.18627771	0.19487303	0.97947314	-0.0095600643	0.31846234	0.96080609	-0.20052324	0.41882443	0.93625433	-0.14358211	0.35428055	1.371056	5.0492305e-05	0.28885077	1.4189443	0.16967909	0.30255942	1.4263633	-0.15541811	0.38769659	1.2993131	0.0043190393	0.36200229	1.359854	-0.065327736	0.32815814	0.4592735	0.040230495	0.3005528	0.45682596	0.14344626	0.25676495	0.10459879	0.091401649	0.23550195	0.096547081	0.16978372	0.23717097	0.28674973	0.1699771	0.17959052	0.051510418	0.12260829	0.39947879	0.049279358	0.13509296
1609	16.08	0.40653708	0.65739667	0.10858417	0.40359155	0.94405957	0.14051723	0.29020663	0.95148993	0.1858835	0.19511368	0.97903436	-0.010085001	0.31914703	0.96074707	-0.20082941	0.41939474	0.936341	-0.14361298	0.35433289	1.3709924	0.00020651469	0.28900992	1.4187471	0.16984094	0.3031254	1.426262	-0.15535948	0.38772028	1.2993804	0.0044881868	0.36212839	1.3598514	-0.06518943	0.32892612	0.45919559	0.04008836	0.30111188	0.45676456	0.14336	0.25683786	0.10459972	0.091341141	0.23555048	0.096626854	0.16970494	0.23747374	0.2867858	0.1698609	0.17960916	0.05117672	0.12229325	0.39951022	0.049267536	0.13510051
1610	16.09	0.40702942	0.6574397	0.10848157	0.40359598	0.94413269	0.14053572	0.29001614	0.95131244	0.18546782	0.19533188	0.97865857	-0.010607951	0.31978363	0.96071741	-0.20108992	0.41995016	0.93644983	-0.14362663	0.35444189	1.3709186	0.00036442631	0.28911429	1.4185138	0.17000064	0.30369943	1.4261414	-0.15533049	0.38778906	1.2993961	0.0046497574	0.36231519	1.3598019	-0.065047714	0.32952692	0.45914154	0.039919312	0.30159589	0.45671085	0.14327528	0.25689496	0.1046073	0.091324104	0.23557991	0.096743385	0.16966727	0.23774219	0.28682022	0.16977087	0.1796194	0.050933395	0.12206416	0.39953299	0.04927615	0.13511241
1611	16.1	0.40741888	0.65745905	0.10832104	0.40358426	0.94420251	0.14054999	0.28981351	0.95113721	0.18505011	0.19553581	0.97834119	-0.011115383	0.32037	0.96071375	-0.20130573	0.42048663	0.93657635	-0.14363504	0.35460556	1.3708287	0.00052271831	0.28916083	1.4182627	0.17014481	0.30427005	1.4260221	-0.15531651	0.38790051	1.2993441	0.004806675	0.36255508	1.3597015	-0.064897064	0.32992694	0.4591051	0.039728844	0.30198132	0.45666626	0.1431877	0.25692752	0.10462165	0.091353577	0.23559114	0.096894714	0.16967816	0.23797035	0.28685007	0.16971175	0.17962042	0.050777702	0.12192025	0.39954565	0.049294918	0.13512373
1612	16.11	0.40769968	0.65745276	0.1081059	0.40356708	0.94425922	0.14055025	0.28962054	0.95097052	0.18465079	0.1957336	0.97807538	-0.011597847	0.32090863	0.96072949	-0.20148468	0.42100339	0.93671191	-0.14364922	0.35481851	1.3707195	0.00067810202	0.28915515	1.4180127	0.17026283	0.30483075	1.4259214	-0.15530412	0.38804874	1.299217	0.0049622998	0.36283691	1.3595519	-0.064733391	0.33012256	0.4590788	0.039524967	0.30225562	0.45663165	0.14309427	0.25693344	0.10464272	0.091430519	0.23558612	0.097078972	0.16974162	0.23815469	0.28687271	0.16968454	0.1796131	0.050692833	0.12184761	0.3995481	0.049316917	0.13513174
1613	16.12	0.40787732	0.65742407	0.10784434	0.40355359	0.94429407	0.14053088	0.28945459	0.95081927	0.18428703	0.19593277	0.97785504	-0.01204968	0.32140552	0.96075702	-0.20163918	0.42150159	0.93684576	-0.1436783	0.35507138	1.3705913	0.00082638186	0.28910989	1.4177795	0.17034819	0.30537967	1.425853	-0.15528313	0.3882262	1.2990172	0.005118896	0.36315005	1.3593617	-0.064554482	0.33013574	0.45905667	0.039316395	0.30241772	0.45660739	0.14299356	0.25691943	0.10466943	0.091552223	0.23556886	0.097290871	0.1698553	0.23829359	0.28688696	0.16968578	0.17959937	0.050657959	0.12182725	0.39954199	0.049337635	0.13513536
1614	16.13	0.40796506	0.65737909	0.10754942	0.4035509	0.94430206	0.14049037	0.28932834	0.95069006	0.18396928	0.19613947	0.97767749	-0.012468287	0.32186859	0.96078979	-0.2017834	0.42198215	0.93696783	-0.14372858	0.35535132	1.3704491	0.00096357667	0.28904138	1.4175748	0.17039867	0.30591977	1.4258245	-0.15524704	0.38842569	1.2987555	0.0052767649	0.3634863	1.3591425	-0.064360992	0.33000339	0.45903619	0.03911087	0.30247812	0.45659314	0.1428856	0.25689713	0.10469857	0.09170697	0.23554538	0.097514381	0.17000594	0.23838745	0.2868927	0.1697074	0.1795817	0.050654125	0.12184028	0.39953021	0.049354347	0.13513463
1615	16.14	0.40798016	0.65732495	0.10723876	0.40356339	0.94428253	0.14043002	0.28925003	0.95058862	0.18370102	0.19635707	0.97754364	-0.012854359	0.3223064	0.96082458	-0.20193044	0.42244461	0.93706995	-0.1438031	0.35564508	1.3703005	0.0010868764	0.28896725	1.4174048	0.17041591	0.30645914	1.425837	-0.15519308	0.38864127	1.2984498	0.0054342308	0.36383914	1.3589095	-0.064157211	0.32976767	0.45901834	0.038914356	0.30245581	0.45658804	0.14277138	0.25687384	0.10472492	0.091868347	0.23552261	0.097717232	0.17016583	0.23843951	0.28689169	0.16973819	0.17956268	0.050666653	0.12187083	0.39951608	0.049365833	0.13513025
1616	16.15	0.4079422	0.65726691	0.10693375	0.40359268	0.94423865	0.140353	0.28922253	0.95051801	0.1834792	0.19658493	0.97745557	-0.013212019	0.32272626	0.96086249	-0.20208946	0.42288647	0.9371474	-0.14390096	0.35594336	1.3701539	0.0011954105	0.28890414	1.4172708	0.17040494	0.30700912	1.4258861	-0.15512222	0.38886798	1.2981224	0.005588449	0.36420291	1.3586809	-0.063950954	0.32947153	0.45900531	0.038731228	0.30237494	0.45659082	0.14265169	0.25684695	0.10474464	0.091998672	0.23550615	0.097862434	0.17029785	0.23845644	0.28688681	0.16976611	0.17954459	0.050685459	0.12190704	0.39950253	0.049372334	0.1351234
1617	16.16	0.40787335	0.65720752	0.10665691	0.403638	0.94417773	0.14026312	0.28924261	0.95047815	0.18329491	0.19681802	0.97741412	-0.013547351	0.32313281	0.96090729	-0.20226488	0.42330292	0.93719995	-0.14401729	0.35624243	1.3700171	0.001290319	0.28886551	1.4171713	0.17037306	0.30758173	1.425963	-0.15503848	0.38910144	1.2977974	0.0057364101	0.36457294	1.3584752	-0.063751972	0.32915833	0.45899811	0.038564838	0.30226035	0.45660025	0.1425269	0.25680826	0.10475799	0.092063858	0.23549867	0.097928337	0.17036922	0.23844756	0.28688153	0.16978111	0.17952902	0.050704609	0.12194073	0.39949179	0.049375221	0.13511555
1618	16.17	0.40779852	0.65714728	0.10642799	0.40369705	0.94410876	0.14016449	0.28930087	0.95046582	0.18313422	0.19704784	0.97741852	-0.013866404	0.32352625	0.96096448	-0.20245721	0.42368701	0.93723145	-0.14414476	0.35654242	1.369896	0.0013736489	0.28886014	1.4171013	0.170328	0.30818503	1.4260571	-0.15494977	0.38933813	1.297498	0.0058752956	0.36494641	1.3583063	-0.063569584	0.32887146	0.45899576	0.038417637	0.30213525	0.45661542	0.14239713	0.25675452	0.10476658	0.09204776	0.23550098	0.09791188	0.17036447	0.23842326	0.28687906	0.16977698	0.17951694	0.050721542	0.12196705	0.39948477	0.049376183	0.13510829
1619	16.18	0.40774277	0.65708704	0.10626068	0.40376593	0.94404199	0.14006104	0.28938263	0.95047498	0.18298048	0.19726451	0.97746655	-0.014174036	0.3239014	0.96103876	-0.20266443	0.42403107	0.93724823	-0.14427605	0.35684418	1.3697955	0.0014467995	0.28889209	1.4170557	0.17027658	0.30882053	1.4261583	-0.15486751	0.38957556	1.2972432	0.0060023813	0.36532269	1.358182	-0.063410805	0.32865042	0.45899576	0.038291351	0.30201962	0.45663635	0.1422632	0.25669312	0.10477086	0.091958191	0.23551219	0.097826515	0.17029047	0.23839349	0.28688208	0.16975218	0.1795087	0.050736103	0.12198396	0.39948193	0.049376549	0.13510313
1620	16.19	0.40772537	0.65702875	0.10616084	0.4038399	0.94398627	0.13995628	0.28947037	0.9504975	0.18281738	0.19745871	0.97755396	-0.014472956	0.32424918	0.9611311	-0.20288162	0.42432822	0.93725739	-0.14440636	0.35714832	1.369719	0.0015099154	0.28896143	1.4170289	0.17022351	0.30948309	1.4262581	-0.15480376	0.38981219	1.297045	0.0061151714	0.36570316	1.3581021	-0.063279449	0.32852417	0.45899478	0.038187428	0.30192859	0.45666364	0.14212794	0.25663876	0.10477285	0.091825294	0.23552766	0.097709465	0.17017516	0.23836664	0.28689249	0.16970972	0.17950427	0.050749496	0.1219918	0.39948309	0.049376938	0.135101
1621	16.2	0.40775494	0.65697626	0.10612596	0.40391388	0.94394873	0.13985287	0.28954666	0.95052472	0.18263199	0.19762282	0.97767438	-0.014762792	0.32455765	0.96123828	-0.20310086	0.42457303	0.93726556	-0.14453461	0.35745535	1.369668	0.0015624795	0.28906604	1.4170159	0.17017099	0.31016455	1.4263514	-0.15476733	0.39004709	1.2969087	0.0062115598	0.36608969	1.3580629	-0.063176991	0.3285051	0.45898987	0.03810709	0.3018714	0.45669763	0.14199648	0.25660544	0.10477621	0.091686874	0.23553967	0.097611191	0.17005449	0.23834862	0.28691135	0.16965572	0.17950356	0.050763031	0.1219923	0.39948819	0.049377232	0.13510204
1622	16.21	0.4078288	0.65693427	0.1061459	0.40398352	0.94393359	0.13975233	0.28959799	0.95054871	0.18241716	0.19775156	0.97781854	-0.015040255	0.32481351	0.96135278	-0.20331241	0.42476218	0.93727728	-0.14466333	0.35776642	1.369641	0.0016041285	0.2892041	1.4170129	0.17011887	0.3108566	1.4264352	-0.15476181	0.39027979	1.2968324	0.0062896824	0.36648364	1.3580586	-0.063103699	0.32858762	0.45897888	0.038050529	0.30185162	0.45673801	0.14187495	0.2565986	0.10478226	0.091568481	0.23554172	0.097568115	0.16995522	0.23834256	0.28693866	0.16959737	0.17950638	0.050777454	0.12198782	0.39949689	0.049376869	0.13510599
1623	16.22	0.40793597	0.65690588	0.10620499	0.40404626	0.94394165	0.13965427	0.28961731	0.95056329	0.18217332	0.19784258	0.9779743	-0.015300205	0.32500394	0.96146539	-0.20350751	0.42489508	0.93729504	-0.14479807	0.35808328	1.369634	0.001634964	0.28937488	1.4170164	0.17006528	0.31155261	1.4265094	-0.154786	0.39051025	1.2968082	0.0063477459	0.36688565	1.3580828	-0.063059055	0.3287518	0.45896091	0.038016251	0.30186798	0.45678308	0.1417688	0.25661539	0.10479016	0.091480415	0.2355294	0.097600342	0.16989102	0.23834901	0.28697363	0.16954077	0.17951239	0.050793018	0.12198067	0.39950873	0.049375336	0.1351123
1624	16.23	0.40806143	0.6568927	0.10628493	0.40410172	0.94397095	0.1395562	0.28960559	0.95056555	0.18190872	0.19789691	0.97812799	-0.015536487	0.32511807	0.96156738	-0.20368079	0.42497449	0.93731866	-0.14494615	0.35840744	1.369642	0.0016551999	0.28957928	1.417024	0.17000786	0.31224646	1.4265752	-0.15483617	0.39073901	1.296824	0.006384047	0.36729605	1.3581282	-0.063041618	0.32896881	0.45893628	0.038000546	0.30191537	0.45683041	0.14168092	0.25665051	0.10479939	0.091426048	0.23549957	0.097723488	0.16986859	0.23836661	0.28701434	0.16948936	0.17952112	0.050809883	0.12197257	0.39952301	0.04937236	0.13512024
1625	16.24	0.40819006	0.65689355	0.10636758	0.40415143	0.94401691	0.13945366	0.28957074	0.95055518	0.18163776	0.1979187	0.9782666	-0.01574268	0.32514874	0.96165216	-0.20383093	0.42500592	0.9373465	-0.14511519	0.35873953	1.3696592	0.0016644086	0.28981903	1.4170338	0.16994444	0.31293167	1.4266348	-0.1549077	0.39096661	1.2968654	0.0063971395	0.36771375	1.3581865	-0.063049049	0.32920715	0.45890631	0.037997066	0.30198645	0.45687683	0.14161076	0.25669983	0.10480726	0.091401924	0.2354532	0.097935318	0.16988611	0.23839276	0.2870582	0.16944344	0.17953195	0.050828289	0.12196429	0.39953909	0.049367821	0.13512877
